<?xml version="1.0" encoding="UTF-8" standalone="no"?>
<svg
   xmlns:dc="http://purl.org/dc/elements/1.1/"
   xmlns:cc="http://creativecommons.org/ns#"
   xmlns:rdf="http://www.w3.org/1999/02/22-rdf-syntax-ns#"
   xmlns:svg="http://www.w3.org/2000/svg"
   xmlns="http://www.w3.org/2000/svg"
   xmlns:sodipodi="http://sodipodi.sourceforge.net/DTD/sodipodi-0.dtd"
   xmlns:inkscape="http://www.inkscape.org/namespaces/inkscape"
   aria-hidden="true"
   class="svg-icon iconCalendar"
   width="18"
   height="18"
   viewBox="0 0 18 18"
   version="1.1"
   id="svg2958"
   sodipodi:docname="calendar.svg"
   inkscape:version="1.0.1 (c497b03c, 2020-09-10)">
  <metadata
     id="metadata2964">
    <rdf:RDF>
      <cc:Work
         rdf:about="">
        <dc:format>image/svg+xml</dc:format>
        <dc:type
           rdf:resource="http://purl.org/dc/dcmitype/StillImage" />
        <dc:title></dc:title>
      </cc:Work>
    </rdf:RDF>
  </metadata>
  <defs
     id="defs2962" />
  <sodipodi:namedview
     pagecolor="#ffffff"
     bordercolor="#666666"
     borderopacity="1"
     objecttolerance="10"
     gridtolerance="10"
     guidetolerance="10"
     inkscape:pageopacity="0"
     inkscape:pageshadow="2"
     inkscape:window-width="1280"
     inkscape:window-height="800"
     id="namedview2960"
     showgrid="false"
     inkscape:zoom="32.888889"
     inkscape:cx="9.6081081"
     inkscape:cy="9"
     inkscape:window-x="0"
     inkscape:window-y="0"
     inkscape:window-maximized="0"
     inkscape:current-layer="svg2958" />
  <path
     d="M14 2h1a2 2 0 012 2v11a2 2 0 01-2 2H3a2 2 0 01-2-2V4c0-1.1.9-2 2-2h1V0h2v2h6V0h2v2zM3 6v9h12V6H3zm2 2h2v2H5V8zm0 3h2v2H5v-2zm3 0h2v2H8v-2zm3 0h2v2h-2v-2zm0-3h2v2h-2V8zM8 8h2v2H8V8z"
     id="path2956" />
</svg>
