<?xml version="1.0" encoding="UTF-8" standalone="no"?>
<svg
   xmlns:dc="http://purl.org/dc/elements/1.1/"
   xmlns:cc="http://creativecommons.org/ns#"
   xmlns:rdf="http://www.w3.org/1999/02/22-rdf-syntax-ns#"
   xmlns:svg="http://www.w3.org/2000/svg"
   xmlns="http://www.w3.org/2000/svg"
   xmlns:sodipodi="http://sodipodi.sourceforge.net/DTD/sodipodi-0.dtd"
   xmlns:inkscape="http://www.inkscape.org/namespaces/inkscape"
   aria-hidden="true"
   class="svg-icon iconDocumentAlt"
   width="18"
   height="18"
   viewBox="0 0 18 18"
   version="1.1"
   id="svg3362"
   sodipodi:docname="document.svg"
   inkscape:version="1.0.1 (c497b03c, 2020-09-10)">
  <metadata
     id="metadata3368">
    <rdf:RDF>
      <cc:Work
         rdf:about="">
        <dc:format>image/svg+xml</dc:format>
        <dc:type
           rdf:resource="http://purl.org/dc/dcmitype/StillImage" />
        <dc:title></dc:title>
      </cc:Work>
    </rdf:RDF>
  </metadata>
  <defs
     id="defs3366" />
  <sodipodi:namedview
     pagecolor="#ffffff"
     bordercolor="#666666"
     borderopacity="1"
     objecttolerance="10"
     gridtolerance="10"
     guidetolerance="10"
     inkscape:pageopacity="0"
     inkscape:pageshadow="2"
     inkscape:window-width="1280"
     inkscape:window-height="800"
     id="namedview3364"
     showgrid="false"
     inkscape:zoom="32.888889"
     inkscape:cx="9"
     inkscape:cy="9"
     inkscape:window-x="0"
     inkscape:window-y="0"
     inkscape:window-maximized="0"
     inkscape:current-layer="svg3362" />
  <path
     d="M5 3a2 2 0 00-2 2v10c0 1.1.9 2 2 2h7a2 2 0 002-2V5a2 2 0 00-2-2H5zm2 3a1 1 0 11-2 0 1 1 0 012 0zm-2 4.5c0-.28.22-.5.5-.5h6a.5.5 0 010 1h-6a.5.5 0 01-.5-.5zm.5 1.5h6a.5.5 0 010 1h-6a.5.5 0 010-1zM5 14.5c0-.28.22-.5.5-.5h6a.5.5 0 010 1h-6a.5.5 0 01-.5-.5z"
     id="path3358" />
  <path
     opacity=".4"
     d="M5.9 2h6.35A2.75 2.75 0 0115 4.75v9.35c.62-.6 1-1.43 1-2.35v-7.5C16 2.45 14.54 1 12.75 1h-4.5c-.92 0-1.75.38-2.35 1z"
     id="path3360" />
</svg>
