<?xml version="1.0" encoding="UTF-8" standalone="no"?>
<svg
   xmlns:dc="http://purl.org/dc/elements/1.1/"
   xmlns:cc="http://creativecommons.org/ns#"
   xmlns:rdf="http://www.w3.org/1999/02/22-rdf-syntax-ns#"
   xmlns:svg="http://www.w3.org/2000/svg"
   xmlns="http://www.w3.org/2000/svg"
   xmlns:sodipodi="http://sodipodi.sourceforge.net/DTD/sodipodi-0.dtd"
   xmlns:inkscape="http://www.inkscape.org/namespaces/inkscape"
   aria-hidden="true"
   class="svg-icon iconBullhorn"
   width="18"
   height="18"
   viewBox="0 0 18 18"
   version="1.1"
   id="svg3039"
   sodipodi:docname="horn.svg"
   inkscape:version="1.0.1 (c497b03c, 2020-09-10)">
  <metadata
     id="metadata3045">
    <rdf:RDF>
      <cc:Work
         rdf:about="">
        <dc:format>image/svg+xml</dc:format>
        <dc:type
           rdf:resource="http://purl.org/dc/dcmitype/StillImage" />
        <dc:title></dc:title>
      </cc:Work>
    </rdf:RDF>
  </metadata>
  <defs
     id="defs3043" />
  <sodipodi:namedview
     pagecolor="#ffffff"
     bordercolor="#666666"
     borderopacity="1"
     objecttolerance="10"
     gridtolerance="10"
     guidetolerance="10"
     inkscape:pageopacity="0"
     inkscape:pageshadow="2"
     inkscape:window-width="1280"
     inkscape:window-height="800"
     id="namedview3041"
     showgrid="false"
     inkscape:zoom="32.888889"
     inkscape:cx="9"
     inkscape:cy="9"
     inkscape:window-x="0"
     inkscape:window-y="0"
     inkscape:window-maximized="0"
     inkscape:current-layer="svg3039" />
  <path
     d="M16 1a1 1 0 00-1 1v.38L5.3 6A2 2 0 004 7.9v2.22a2 2 0 001 1.74v1.65a3.5 3.5 0 006.87.95L15 15.63V16a1 1 0 102 0V2a1 1 0 00-1-1zM6.6 12.47l3.76 1.42a1.9 1.9 0 01-3.76-.39v-1.03zM2 6a1 1 0 00-1 1v4a1 1 0 102 0V7a1 1 0 00-1-1z"
     id="path3037" />
</svg>
