<?xml version="1.0" encoding="UTF-8" standalone="no"?>
<svg
   xmlns:dc="http://purl.org/dc/elements/1.1/"
   xmlns:cc="http://creativecommons.org/ns#"
   xmlns:rdf="http://www.w3.org/1999/02/22-rdf-syntax-ns#"
   xmlns:svg="http://www.w3.org/2000/svg"
   xmlns="http://www.w3.org/2000/svg"
   xmlns:sodipodi="http://sodipodi.sourceforge.net/DTD/sodipodi-0.dtd"
   xmlns:inkscape="http://www.inkscape.org/namespaces/inkscape"
   aria-hidden="true"
   class="svg-icon iconPeople"
   width="18"
   height="18"
   viewBox="0 0 18 18"
   version="1.1"
   id="svg4054"
   sodipodi:docname="people.svg"
   inkscape:version="1.0.1 (c497b03c, 2020-09-10)">
  <metadata
     id="metadata4060">
    <rdf:RDF>
      <cc:Work
         rdf:about="">
        <dc:format>image/svg+xml</dc:format>
        <dc:type
           rdf:resource="http://purl.org/dc/dcmitype/StillImage" />
        <dc:title></dc:title>
      </cc:Work>
    </rdf:RDF>
  </metadata>
  <defs
     id="defs4058" />
  <sodipodi:namedview
     pagecolor="#ffffff"
     bordercolor="#666666"
     borderopacity="1"
     objecttolerance="10"
     gridtolerance="10"
     guidetolerance="10"
     inkscape:pageopacity="0"
     inkscape:pageshadow="2"
     inkscape:window-width="1280"
     inkscape:window-height="800"
     id="namedview4056"
     showgrid="false"
     inkscape:zoom="32.888889"
     inkscape:cx="9"
     inkscape:cy="9"
     inkscape:window-x="0"
     inkscape:window-y="0"
     inkscape:window-maximized="0"
     inkscape:current-layer="svg4054" />
  <path
     d="M17 14c0 .44-.45 1-1 1H9a1 1 0 01-1-1H2c-.54 0-1-.56-1-1 0-2.63 3-4 3-4s.23-.4 0-1c-.84-.62-1.06-.59-1-3 .06-2.42 1.37-3 2.5-3s2.44.58 2.5 3c.06 2.41-.16 2.38-1 3-.23.59 0 1 0 1s1.55.71 2.42 2.09c.78-.72 1.58-1.1 1.58-1.1s.23-.4 0-1c-.84-.61-1.06-.58-1-3 .06-2.41 1.37-3 2.5-3s2.44.59 2.5 3c.05 2.42-.16 2.39-1 3-.23.6 0 1 0 1s3 1.38 3 4z"
     id="path4052" />
</svg>
