<?xml version="1.0" encoding="UTF-8" standalone="no"?>
<svg
   xmlns:dc="http://purl.org/dc/elements/1.1/"
   xmlns:cc="http://creativecommons.org/ns#"
   xmlns:rdf="http://www.w3.org/1999/02/22-rdf-syntax-ns#"
   xmlns:svg="http://www.w3.org/2000/svg"
   xmlns="http://www.w3.org/2000/svg"
   xmlns:sodipodi="http://sodipodi.sourceforge.net/DTD/sodipodi-0.dtd"
   xmlns:inkscape="http://www.inkscape.org/namespaces/inkscape"
   aria-hidden="true"
   class="svg-icon iconStar"
   width="18"
   height="18"
   viewBox="0 0 18 18"
   version="1.1"
   id="svg3690"
   sodipodi:docname="star.svg"
   inkscape:version="1.0.1 (c497b03c, 2020-09-10)">
  <metadata
     id="metadata3696">
    <rdf:RDF>
      <cc:Work
         rdf:about="">
        <dc:format>image/svg+xml</dc:format>
        <dc:type
           rdf:resource="http://purl.org/dc/dcmitype/StillImage" />
        <dc:title></dc:title>
      </cc:Work>
    </rdf:RDF>
  </metadata>
  <defs
     id="defs3694" />
  <sodipodi:namedview
     pagecolor="#ffffff"
     bordercolor="#666666"
     borderopacity="1"
     objecttolerance="10"
     gridtolerance="10"
     guidetolerance="10"
     inkscape:pageopacity="0"
     inkscape:pageshadow="2"
     inkscape:window-width="1280"
     inkscape:window-height="800"
     id="namedview3692"
     showgrid="false"
     inkscape:zoom="32.888889"
     inkscape:cx="9"
     inkscape:cy="9"
     inkscape:window-x="0"
     inkscape:window-y="0"
     inkscape:window-maximized="0"
     inkscape:current-layer="svg3690" />
  <path
     d="M8.63.95a.4.4 0 01.74 0l2.05 4.93a.4.4 0 00.34.24l5.32.43c.35.03.5.47.22.7l-4.05 3.47a.4.4 0 00-.13.4l1.24 5.2a.4.4 0 01-.6.43l-4.55-2.79a.4.4 0 00-.42 0l-4.55 2.79a.4.4 0 01-.6-.44l1.24-5.19a.4.4 0 00-.13-.4L.7 7.25a.4.4 0 01.22-.7l5.32-.43a.4.4 0 00.34-.24L8.63.95z"
     id="path3688" />
</svg>
