<?xml version="1.0" encoding="UTF-8" standalone="no"?>
<svg
   xmlns:dc="http://purl.org/dc/elements/1.1/"
   xmlns:cc="http://creativecommons.org/ns#"
   xmlns:rdf="http://www.w3.org/1999/02/22-rdf-syntax-ns#"
   xmlns:svg="http://www.w3.org/2000/svg"
   xmlns="http://www.w3.org/2000/svg"
   xmlns:sodipodi="http://sodipodi.sourceforge.net/DTD/sodipodi-0.dtd"
   xmlns:inkscape="http://www.inkscape.org/namespaces/inkscape"
   width="150"
   height="34"
   viewBox="0 0 39.687498 8.9958332"
   version="1.1"
   id="svg1223"
   inkscape:version="1.0.1 (c497b03c, 2020-09-10)"
   sodipodi:docname="label_full.svg">
  <defs
     id="defs1217" />
  <sodipodi:namedview
     id="base"
     pagecolor="#ffffff"
     bordercolor="#666666"
     borderopacity="1.0"
     inkscape:pageopacity="0.0"
     inkscape:pageshadow="2"
     inkscape:zoom="2.7091497"
     inkscape:cx="84.407633"
     inkscape:cy="51.629025"
     inkscape:document-units="mm"
     inkscape:current-layer="layer1"
     inkscape:document-rotation="0"
     showgrid="false"
     units="px"
     inkscape:window-width="1280"
     inkscape:window-height="800"
     inkscape:window-x="0"
     inkscape:window-y="0"
     inkscape:window-maximized="0" />
  <metadata
     id="metadata1220">
    <rdf:RDF>
      <cc:Work
         rdf:about="">
        <dc:format>image/svg+xml</dc:format>
        <dc:type
           rdf:resource="http://purl.org/dc/dcmitype/StillImage" />
        <dc:title></dc:title>
      </cc:Work>
    </rdf:RDF>
  </metadata>
  <g
     inkscape:label="Слой 1"
     inkscape:groupmode="layer"
     id="layer1">
    <path
       d="M 5.5562499,7.0908329 V 4.974167 h 0.79375 V 7.884583 H 0 V 4.974167 h 0.79374995 v 2.116666 z"
       fill="#bcbbbb"
       id="path258"
       style="stroke-width:0.264583" />
    <path
       d="m 1.4287499,5.000625 3.5983334,0.529167 0.026458,-0.635 L 1.5875,4.180417 1.4552082,4.9741669 Z M 1.905,3.201458 5.08,4.683125 l 0.2910417,-0.635 -3.175,-1.481667 z M 2.8045833,1.640417 5.5033332,3.889375 5.953125,3.360208 3.254375,1.1112499 Z M 4.524375,0 3.96875,0.423333 6.0589583,3.227917 6.6145833,2.804583 Z M 1.3229166,6.5616669 h 3.7041667 v -0.79375 H 1.3229166 Z"
       fill="#f48024"
       id="path260"
       style="stroke-width:0.264583" />
    <path
       d="m 8.9958334,4.9477079 -0.4497917,-0.05292 c -0.3439584,0 -0.47625,-0.15875 -0.47625,-0.396875 0,-0.264584 0.1852083,-0.47625 0.6085417,-0.47625 0.2645834,0 0.5291667,0.07938 0.6879167,0.211666 l 0.2645833,-0.264583 c -0.2645833,-0.185208 -0.5820833,-0.264583 -0.9525,-0.264583 -0.5820834,0 -1.0054167,0.291041 -1.0054167,0.79375 0,0.449791 0.2645833,0.687916 0.79375,0.740833 l 0.4762501,0.02646 c 0.3175,0.02646 0.4497916,0.15875 0.4497916,0.423333 0,0.3175 -0.2645833,0.47625 -0.6879166,0.47625 -0.3439585,0 -0.6350001,-0.07937 -0.8466669,-0.291041 L 7.5935416,6.138331 C 7.9110417,6.402915 8.255,6.48229 8.7047918,6.48229 9.3662501,6.48229 9.8160416,6.191248 9.8160416,5.68854 9.7631216,5.159373 9.4191667,5.000623 8.9693751,4.947706 Z m 3.3602086,-1.217083 c -0.449792,0 -0.714375,0.07937 -0.9525,0.370417 l 0.264583,0.264583 c 0.15875,-0.238125 0.3175,-0.3175 0.687917,-0.3175 0.47625,0 0.687916,0.2116671 0.687916,0.582083 v 0.264584 H 12.22375 c -0.608542,0 -0.9525,0.3175 -0.9525,0.79375 0,0.1852081 0.07938,0.396875 0.211667,0.5291661 0.185208,0.211667 0.370416,0.264584 0.767291,0.264584 a 1.0583333,1.0583333 0 0 0 0.79375,-0.264584 v 0.264584 h 0.396875 V 4.630208 C 13.414373,4.021667 13.070417,3.730625 12.356042,3.7306249 Z m 0.687916,1.772708 c 0,0.238125 -0.05292,0.370417 -0.132291,0.4497921 -0.185209,0.15875 -0.396875,0.185208 -0.608542,0.185208 -0.449792,0 -0.608542,-0.1587501 -0.608542,-0.4497911 0,-0.3174999 0.185209,-0.47625 0.608542,-0.47625 h 0.767292 z m 1.905,-1.42875 c 0.264584,0 0.423334,0.07938 0.635,0.3175 l 0.264584,-0.264583 c -0.291042,-0.291042 -0.529167,-0.396875 -0.899584,-0.396875 -0.687916,0 -1.217083,0.449792 -1.217083,1.402292 0,0.899583 0.529167,1.3758331 1.217083,1.3758331 0.370417,0 0.608542,-0.07938 0.873125,-0.396875 L 15.5575,5.847292 c -0.211667,0.264583 -0.370417,0.3175 -0.608542,0.3175 a 0.79375,0.79375 0 0 1 -0.635,-0.291042 C 14.181667,5.6885419 14.12875,5.476875 14.12875,5.1329169 c 0,-0.3439589 0.05292,-0.555625 0.185208,-0.7408339 0.15875,-0.211666 0.396875,-0.3175 0.635,-0.3175001 z m 3.413125,-0.3175 h -0.47625 l -1.217083,1.190625 v -2.407708 h -0.423333 v 3.915833 h 0.423333 v -1.005416 l 0.47625,-0.47625 0.926042,1.481666 h 0.449791 l -1.11125,-1.772708 0.926042,-0.926042 z m 1.852085,-0.07937 c -0.396875,0 -0.687918,0.1587501 -0.873126,0.343959 -0.264584,0.264583 -0.3175,0.608541 -0.3175,1.11125 0,0.502708 0.07938,0.820208 0.3175,1.058333 0.185208,0.2116671 0.476251,0.370417 0.873126,0.370417 0.396875,0 0.714375,-0.1322919 0.873125,-0.343959 0.264583,-0.264583 0.3175,-0.582083 0.3175,-1.084791 0,-0.529167 -0.07937,-0.846667 -0.3175,-1.11125 -0.15875,-0.185209 -0.449792,-0.343959 -0.873125,-0.343959 z m 0.343958,2.116667 c -0.07937,0.07937 -0.185208,0.105833 -0.343958,0.105833 -0.15875,0 -0.264584,-0.02646 -0.3175,-0.105833 -0.15875,-0.15875 -0.15875,-0.423333 -0.15875,-0.687917 0,-0.3175 0,-0.529166 0.15875,-0.687916 0.05292,-0.07937 0.15875,-0.132292 0.3175,-0.132292 0.15875,0 0.264583,0.05292 0.343958,0.132292 0.132292,0.15875 0.132292,0.370416 0.132292,0.687916 0.02646,0.291042 0,0.529167 -0.132292,0.687917 z m 2.725208,-2.090208 -0.555625,1.74625 -0.582083,-1.74625 h -0.740833 l 1.058333,2.804583 h 0.529167 l 1.058333,-2.804583 z m 1.931459,-0.02646 c -0.740834,0 -1.217084,0.529166 -1.217084,1.455208 0,1.137708 0.635,1.42875 1.296459,1.42875 0.529166,0 0.79375,-0.132292 1.058333,-0.423333 l -0.423333,-0.370417 a 0.79375,0.79375 0 0 1 -0.635,0.264583 c -0.396875,0 -0.608542,-0.264583 -0.608542,-0.661458 h 1.74625 v -0.291042 c 0,-0.79375 -0.423333,-1.375833 -1.217083,-1.375833 z m -0.529167,1.164166 c 0,-0.132292 0,-0.211667 0.07937,-0.291042 0.07937,-0.185208 0.211667,-0.3175 0.47625,-0.3175 a 0.52916667,0.52916667 0 0 1 0.47625,0.3175 c 0.05292,0.07938 0.05292,0.15875 0.07937,0.291042 z m 2.778125,-0.846667 v -0.291041 h -0.661458 v 2.804583 h 0.687916 v -1.693333 c 0,-0.343959 0.238125,-0.502709 0.47625,-0.502709 0.15875,0 0.264584,0.05292 0.370417,0.185209 l 0.529167,-0.529167 c -0.211667,-0.211667 -0.370417,-0.264583 -0.661459,-0.264583 -0.3175,-0.02646 -0.582083,0.105833 -0.740833,0.264583 z m 1.42875,-0.608541 v 3.122083 h 0.714375 v -2.2225 h 0.529167 v -0.529167 h -0.529167 v -0.3175 c 0,-0.132291 0.07937,-0.264583 0.264583,-0.264583 h 0.264584 v -0.555628 h -0.396875 c -0.582084,0 -0.846667,0.396875 -0.846667,0.79375 z m 4.28625,0.291041 c -0.396875,0 -0.687917,0.15875 -0.846667,0.343959 -0.264583,0.264583 -0.343958,0.608541 -0.343958,1.11125 0,0.502708 0.07938,0.820208 0.343958,1.058333 0.15875,0.211667 0.449792,0.370417 0.846667,0.370417 0.423333,0 0.714375,-0.132292 0.873125,-0.343959 0.264583,-0.264583 0.3175,-0.582083 0.3175,-1.084791 0,-0.529167 -0.07937,-0.846667 -0.3175,-1.11125 -0.15875,-0.185209 -0.449792,-0.343959 -0.873125,-0.343959 z m 0.343958,2.116667 c -0.07937,0.07937 -0.185208,0.105833 -0.343958,0.105833 -0.15875,0 -0.264583,-0.02646 -0.3175,-0.105833 -0.15875,-0.15875 -0.15875,-0.423333 -0.15875,-0.687917 0,-0.3175 0.02646,-0.529166 0.15875,-0.687916 0.07937,-0.07937 0.15875,-0.132292 0.3175,-0.132292 0.15875,0 0.264583,0.05292 0.343958,0.132292 0.132292,0.15875 0.132292,0.370416 0.132292,0.687916 0,0.291042 0,0.529167 -0.132292,0.687917 z m 4.180417,-2.090208 -0.449792,1.74625 -0.582083,-1.74625 h -0.529167 l -0.582083,1.74625 -0.449792,-1.74625 h -0.714375 l 0.873125,2.804583 h 0.582084 l 0.582083,-1.772708 0.582083,1.772708 h 0.582084 l 0.873125,-2.804583 h -0.740834 z m -6.50875,1.957916 v -3.069166 h -0.714375 v 3.122083 c 0,0.396875 0.264583,0.79375 0.820208,0.79375 h 0.423334 v -0.582083 h -0.264584 c -0.185208,0 -0.264583,-0.07937 -0.264583,-0.264584 z m -20.346459,-1.481669 0.370416,-0.343959 h -0.79375 v -0.899583 h -0.370416 v 2.831042 c 0,0.396875 0.238125,0.7143751 0.687916,0.7143751 h 0.264584 v -0.3175 h -0.185209 c -0.264583,0 -0.370416,-0.1587501 -0.370416,-0.396875 v -1.5875 z"
       fill="#222426"
       id="path262"
       style="stroke-width:0.264583" />
  </g>
</svg>
